<svg x="0" y="0" width="48" height="48" version="1.1" xmlns="http://www.w3.org/2000/svg" xmlns:xlink="http://www.w3.org/1999/xlink"><defs><linearGradient x1="11.68966" y1="14.15172" x2="57.52354" y2="55.06147" gradientUnits="userSpaceOnUse" id="color-1"><stop offset="0" stop-color="#000000" stop-opacity="0.6"></stop><stop offset="1" stop-color="#000000" stop-opacity="0"></stop></linearGradient><filter id="dropshadow"><feColorMatrix type="matrix" values="0 0 0 0 .05  0 0 0 0 .15  0 0 0 0 .1  0 0 0 .8 0"></feColorMatrix> <feOffset dx="0" dy="1"></feOffset> <feGaussianBlur stdDeviation="1"></feGaussianBlur> <feComposite in="SourceGraphic"></feComposite></filter></defs><g fill="none" stroke="none" stroke-width="none" stroke-linecap="butt" stroke-linejoin="miter" stroke-miterlimit="none" stroke-dasharray="" stroke-dashoffset="0" font-family="none" font-weight="normal" font-size="none" text-anchor="start" mix-blend-mode="normal"><g fill="#000000" stroke="none" stroke-width="1" stroke-miterlimit="4" font-family="&quot;Open Sans&quot;, sans-serif" font-size="14"></g><path d="M3,24c0,-11.59798 9.40202,-21 21,-21c11.59798,0 21,9.40202 21,21c0,11.59798 -9.40202,21 -21,21c-11.59798,0 -21,-9.40202 -21,-21z" fill="#0091ea" stroke-width="1" stroke-miterlimit="10" font-family="sans-serif" font-size="12" filter="url(#dropshadow)"></path><path d="M24.28139,44.99815l-11.87081,-11.87081c-0.44548,-0.44548 -0.72092,-1.06098 -0.72092,-1.74113c0,0 0,-0.00001 0,-0.00001l0,0c0,0 0.01231,-14.7724 0.01231,-14.7724c0,-1.36029 1.08947,-2.46207 2.44976,-2.46207l1.23103,0l0.00001,0.00001l-0.00001,-0.00002l4.92414,4.92414l1.23102,0l-2.46206,-4.92413l2.46207,0c0,0 0.00001,0.00001 0.00001,0.00001l-0.00001,-0.00002c0,0 4.92414,4.92414 4.92414,4.92414l1.23102,0l-2.46206,-4.92413l2.46207,0l0.00001,0.00001l-0.00001,-0.00002l4.92414,4.92414l1.23103,0c0,0 -2.46207,-4.92413 -2.46207,-4.92413l4.92414,0l8.65641,8.65641c0.02207,0.39448 0.03325,0.79187 0.03325,1.19186c0,11.50404 -9.25033,20.84754 -20.71861,20.99815z" fill="url(#color-1)" stroke-width="1" stroke-miterlimit="10" font-family="sans-serif" font-size="12"></path><path d="M36.31034,14.15173l0,17.23447c0,1.36029 -1.10178,2.46207 -2.46207,2.46207l-19.69654,0c-1.36029,0 -2.46207,-1.10178 -2.46207,-2.46207l0.01231,-14.77241c0,-1.36029 1.08946,-2.46207 2.44976,-2.46207l1.23103,0l2.46207,4.92414l3.6931,0l-2.46207,-4.92414l2.46207,0l2.46207,4.92414l3.6931,0l-2.46207,-4.92414l2.46207,0l2.46207,4.92414l3.6931,0l-2.46207,-4.92414z" fill="#ffffff" stroke="none" stroke-width="0" stroke-miterlimit="4" font-family="&quot;Open Sans&quot;, sans-serif" font-size="14"></path></g></svg>